Coordinates
version=1
nRows=13
nColumns=34
inDegrees=yes

Units are S.I. units (second, meters, Newtons, ...)
If the header above contains a line with 'inDegrees', this indicates whether rotational values are in degrees (yes) or radians (no).

endheader
time	pelvis_tilt	pelvis_list	pelvis_rotation	pelvis_tx	pelvis_ty	pelvis_tz	hip_flexion_r	hip_adduction_r	hip_rotation_r	knee_angle_r	ankle_angle_r	subtalar_angle_r	mtp_angle_r	hip_flexion_l	hip_adduction_l	hip_rotation_l	knee_angle_l	ankle_angle_l	subtalar_angle_l	mtp_angle_l	lumbar_extension	lumbar_bending	lumbar_rotation	arm_flex_r	arm_add_r	arm_rot_r	elbow_flex_r	pro_sup_r	arm_flex_l	arm_add_l	arm_rot_l	elbow_flex_l	pro_sup_l
      4.68333330	    -30.63353974	     -6.08034737	      7.24332753	     -0.03874709	      0.54163311	     -0.05066609	    100.95066333	    -20.49930200	      3.67816707	    112.60816795	     43.27745252	    -13.63121829	      0.00000000	    105.55775857	    -18.11081280	      9.83124463	    112.83372966	     36.62696984	     -4.33068782	      0.00000000	    -19.42646596	      2.02141733	      4.19903995	     95.19229577	      0.62439276	     75.04918048	    127.68807682	     90.74224058	     94.82667248	      4.88891808	     85.16316744	    120.45202242	     81.00068050
      4.70000000	    -30.77331876	     -6.18603884	      7.34730116	     -0.04605196	      0.52502280	     -0.04849454	    103.67583600	    -20.51668594	      4.66185108	    115.07810862	     43.23380744	    -13.62803858	      0.00000000	    108.26062614	    -17.87405575	     11.07911287	    114.89150553	     36.19730129	     -4.09504328	      0.00000000	    -20.45707357	      1.98946821	      4.15338532	     96.61239192	      0.64344249	     74.51306185	    127.39355335	     90.48105763	     96.29361294	      4.88568739	     85.01297471	    120.09993046	     80.98146487
      4.71666670	    -31.44249993	     -6.30975262	      7.31634386	     -0.04719828	      0.50693321	     -0.04962562	    106.78874418	    -20.54867619	      5.82089115	    117.59679852	     42.99698456	    -13.64885156	      0.00000000	    111.35852082	    -17.75229562	     12.18907608	    117.04368322	     36.30821595	     -3.28110701	      0.00000000	    -20.61887916	      2.00536999	      4.10706372	     97.52539069	      0.34742858	     73.84208629	    127.45792497	     89.93524555	     97.65391613	      4.75412219	     85.33110185	    120.03298887	     80.93092862
      4.73333330	    -31.95067158	     -6.20109883	      7.00597677	     -0.04740402	      0.48906670	     -0.05606483	    109.76829243	    -20.70211846	      7.29167100	    119.85795752	     42.79233365	    -13.33537175	      0.00000000	    114.23888204	    -17.51753800	     13.16086344	    119.67963478	     36.73287720	     -2.78299730	      0.00000000	    -20.69916415	      2.03463116	      4.07020797	     98.27567572	      0.35858004	     73.68646509	    127.52329879	     89.46808544	     98.43489269	      4.60461992	     84.89054695	    119.71642162	     80.83890181
      4.75000000	    -32.47683246	     -6.03467026	      6.47695259	     -0.05019330	      0.47373117	     -0.05892699	    112.64046367	    -20.80071772	      8.77252668	    121.73725638	     42.71169335	    -12.17252167	      0.00000000	    116.93399188	    -17.31165632	     14.09457001	    122.29754108	     36.94551292	     -2.69335653	      0.00000000	    -20.56652545	      2.02085524	      4.14049018	     98.64749475	      0.39732861	     73.94390529	    127.69078685	     89.04123761	     98.74767503	      4.71963495	     84.70364092	    119.68247015	     80.77714478
      4.76666670	    -32.48721842	     -5.80921094	      6.04252755	     -0.05726196	      0.46043601	     -0.05460534	    114.95048645	    -20.61530026	      9.96286216	    123.45027154	     42.40977531	    -11.38609807	      0.00000000	    119.08841451	    -17.09084406	     15.03588030	    124.41385465	     36.61704418	     -2.89297654	      0.00000000	    -21.31752497	      1.83567060	      4.45953419	     99.58743403	      0.48084041	     73.78765734	    127.49945724	     88.80998753	     99.60940266	      5.10684079	     84.65816268	    119.65095857	     80.76059212
      4.78333330	    -31.74259510	     -5.13197712	      5.98348066	     -0.06573638	      0.44921352	     -0.05141497	    116.63812344	    -20.40593551	     11.41081920	    124.98684688	     42.09856204	    -10.53385036	      0.00000000	    119.99999986	    -16.83437171	     15.42930326	    125.95195452	     35.94183599	     -3.27887170	      0.00000000	    -23.30140144	      1.14048776	      4.45506912	    101.10066181	      0.20697034	     73.32215169	    127.36004839	     88.22800520	    101.56190313	      5.20140675	     84.95759817	    119.85028714	     80.69659284
      4.80000000	    -30.56968507	     -4.33866352	      5.87783081	     -0.06719686	      0.44262117	     -0.04903589	    117.64306239	    -19.98351436	     12.55889339	    126.30060195	     41.76201760	     -9.91554486	      0.00000000	    119.99999986	    -16.93898911	     15.72922812	    126.98906545	     35.26591863	     -3.75658522	      0.00000000	    -26.04795873	      0.25194224	      4.41746965	    102.74045563	     -0.00669186	     72.65305165	    126.95920710	     87.56055923	    103.75904583	      5.33870058	     85.28579864	    119.94114531	     80.53407544
      4.81666670	    -29.48964513	     -3.61983639	      5.95307701	     -0.06502580	      0.43420748	     -0.04811748	    118.34855920	    -19.79577520	     13.71001026	    127.79126415	     41.50662083	     -9.47080495	      0.00000000	    119.99999986	    -17.12171144	     16.07107924	    128.06168990	     34.74956946	     -3.75076545	      0.00000000	    -28.34622051	     -0.46098486	      4.25958393	    103.79491224	      0.08726717	     72.52318280	    126.54616768	     87.19163218	    105.16350682	      5.39197153	     85.36293762	    119.88143336	     80.40057664
      4.83333330	    -28.41091542	     -3.15412376	      6.12138080	     -0.06107378	      0.42423210	     -0.04608905	    118.81838067	    -19.91276722	     14.86318340	    129.56138585	     41.38932430	     -9.32178430	      0.00000000	    119.99999986	    -17.40962805	     16.76033484	    129.37228276	     34.47750139	     -3.47815653	      0.00000000	    -30.24107515	     -1.03435926	      3.78816215	    104.43685264	      0.46818920	     72.89409596	    126.57900299	     86.70733455	    106.19892811	      5.18503212	     85.84301246	    119.95138166	     80.17582300
      4.85000000	    -27.07463615	     -2.69319036	      6.17069408	     -0.06786611	      0.41181241	     -0.04938662	    119.18916784	    -20.06478583	     16.16841661	    130.99981258	     41.47790165	     -8.55904453	      0.00000000	    119.99999986	    -17.38008999	     17.31636418	    131.09674374	     34.30008611	     -3.21115045	      0.00000000	    -32.31074493	     -1.35712262	      3.42316723	    105.46282213	      0.70511825	     72.71453858	    126.30264267	     86.27344413	    107.53966970	      5.25752240	     85.52194853	    119.76276588	     79.90984292
      4.86666670	    -25.93691662	     -2.25424385	      5.93313006	     -0.06486130	      0.40683477	     -0.05046170	    119.44838140	    -20.09470463	     17.42727613	    132.20907531	     42.21260358	     -6.98715646	      0.00000000	    119.99999986	    -17.71548272	     18.06895074	    132.77204477	     33.94350607	     -2.91494938	      0.00000000	    -34.06440582	     -1.74195775	      3.25626446	    106.15891342	      0.83580383	     72.93635634	    126.39466844	     85.77633350	    108.30682159	      5.17050896	     85.33816931	    119.47637862	     79.55094933
      4.88333330	    -25.05079066	     -1.73844535	      5.70364063	     -0.06401466	      0.40115631	     -0.04661401	    119.74116460	    -19.99163807	     18.51429239	    133.22750150	     42.56044638	     -5.99360666	      0.00000000	    119.99999986	    -18.12920178	     18.73803208	    134.05317635	     33.68874526	     -2.30665080	      0.00000000	    -35.40325342	     -2.33495287	      3.06981818	    106.52504388	      1.03776206	     73.40672743	    126.51396065	     85.28066023	    108.90209542	      5.11169632	     85.37998142	    119.32658121	     79.17285408
